<svg xmlns="http://www.w3.org/2000/svg" version="1.1" xmlns:xlink="http://www.w3.org/1999/xlink" xmlns:svgjs="http://svgjs.com/svgjs" width="256" height="256" x="0" y="0" viewBox="0 0 24 24" style="enable-background:new 0 0 512 512" xml:space="preserve"><g><path d="M11.5 24h-7A4.505 4.505 0 0 1 0 19.5v-7C0 10.019 2.019 8 4.5 8h7c2.481 0 4.5 2.019 4.5 4.5v7c0 2.481-2.019 4.5-4.5 4.5Zm-7-15C2.57 9 1 10.57 1 12.5v7C1 21.43 2.57 23 4.5 23h7c1.93 0 3.5-1.57 3.5-3.5v-7c0-1.93-1.57-3.5-3.5-3.5h-7ZM24 10.5C24 4.71 19.29 0 13.5 0a.5.5 0 0 0 0 1c5.238 0 9.5 4.262 9.5 9.5a.5.5 0 0 0 1 0Zm-4 0C20 6.916 17.084 4 13.5 4a.5.5 0 0 0 0 1c3.032 0 5.5 2.467 5.5 5.5a.5.5 0 0 0 1 0ZM4 11a1 1 0 1 0 0 2 1 1 0 0 0 0-2Z" fill="#ffffff" data-original="#000000"></path></g></svg>