<svg xmlns="http://www.w3.org/2000/svg" version="1.1" xmlns:xlink="http://www.w3.org/1999/xlink" xmlns:svgjs="http://svgjs.com/svgjs" width="256" height="256" x="0" y="0" viewBox="0 0 24 24" style="enable-background:new 0 0 512 512" xml:space="preserve"><g><path d="M12 14.184V5h-2v9.184a3 3 0 1 0 2 0ZM11 18a1 1 0 1 1 1-1 1 1 0 0 1-1 1Zm5-13A5 5 0 0 0 6 5v7.111a7 7 0 1 0 10 0Zm-5 17a4.994 4.994 0 0 1-3.332-8.719l.332-.3V5a3 3 0 0 1 6 0v7.983l.332.3A4.994 4.994 0 0 1 11 22ZM21 0a3 3 0 1 0 3 3 3 3 0 0 0-3-3Zm0 4a1 1 0 1 1 1-1 1 1 0 0 1-1 1Z" fill="#ffffff" data-original="#000000"></path></g></svg>